<svg xmlns="http://www.w3.org/2000/svg" width="1000" height="560" viewBox="0 0 1000 560">
<rect width="100%" height="100%" fill="white"/>
<text x="500.0" y="28.0" font-size="18" text-anchor="middle" fill="#333">Base Composition (U normalized to T)</text>
<line x1="70" y1="460" x2="850" y2="460" stroke="#333"/>
<line x1="70" y1="50" x2="70" y2="460" stroke="#333"/>
<rect x="92.28571428571429" y="362.95262440031956" width="66.85714285714286" height="97.04737559968044" fill="#4E79A7"/>
<rect x="92.28571428571429" y="275.72393544471316" width="66.85714285714286" height="87.22868895560642" fill="#F28E2B"/>
<rect x="92.28571428571429" y="153.22867003077988" width="66.85714285714286" height="122.49526541393327" fill="#E15759"/>
<rect x="92.28571428571429" y="50.0" width="66.85714285714286" height="103.22867003077988" fill="#76B7B2"/>
<rect x="92.28571428571429" y="50.0" width="66.85714285714286" height="0.0" fill="#59A14F"/>
<text x="125.7" y="484.0" font-size="11" text-anchor="middle" fill="#333">ArchiveII:test</text>
<rect x="203.71428571428572" y="363.34897552970006" width="66.85714285714286" height="96.65102447029993" fill="#4E79A7"/>
<rect x="203.71428571428572" y="275.6490090734442" width="66.85714285714286" height="87.69996645625591" fill="#F28E2B"/>
<rect x="203.71428571428572" y="155.80638744964972" width="66.85714285714286" height="119.84262162379444" fill="#E15759"/>
<rect x="203.71428571428572" y="53.26859529334142" width="66.85714285714286" height="102.5377921563083" fill="#76B7B2"/>
<rect x="203.71428571428572" y="49.99999999999999" width="66.85714285714286" height="3.2685952933414284" fill="#59A14F"/>
<text x="237.1" y="484.0" font-size="11" text-anchor="middle" fill="#333">RNAStrAlign:train</text>
<rect x="315.14285714285717" y="362.2504956300785" width="66.85714285714286" height="97.74950436992154" fill="#4E79A7"/>
<rect x="315.14285714285717" y="273.9367268868847" width="66.85714285714286" height="88.3137687431938" fill="#F28E2B"/>
<rect x="315.14285714285717" y="154.3151369614386" width="66.85714285714286" height="119.62158992544607" fill="#E15759"/>
<rect x="315.14285714285717" y="52.08360092703769" width="66.85714285714286" height="102.23153603440092" fill="#76B7B2"/>
<rect x="315.14285714285717" y="50.00000000000003" width="66.85714285714286" height="2.083600927037668" fill="#59A14F"/>
<text x="348.6" y="484.0" font-size="11" text-anchor="middle" fill="#333">RNAStrAlign:unused(vl)</text>
<rect x="426.57142857142856" y="362.51587853822815" width="66.85714285714286" height="97.48412146177184" fill="#4E79A7"/>
<rect x="426.57142857142856" y="274.3229146372011" width="66.85714285714286" height="88.19296390102703" fill="#F28E2B"/>
<rect x="426.57142857142856" y="154.4827298282724" width="66.85714285714286" height="119.84018480892873" fill="#E15759"/>
<rect x="426.57142857142856" y="51.93309026134874" width="66.85714285714286" height="102.54963956692366" fill="#76B7B2"/>
<rect x="426.57142857142856" y="49.999999999999964" width="66.85714285714286" height="1.9330902613487713" fill="#59A14F"/>
<text x="460.0" y="484.0" font-size="11" text-anchor="middle" fill="#333">RNAStrAlign:val/test</text>
<rect x="538.0000000000001" y="356.7737166743131" width="66.85714285714286" height="103.2262833256869" fill="#4E79A7"/>
<rect x="538.0000000000001" y="254.85485944730476" width="66.85714285714286" height="101.91885722700833" fill="#F28E2B"/>
<rect x="538.0000000000001" y="146.59626287856904" width="66.85714285714286" height="108.25859656873573" fill="#E15759"/>
<rect x="538.0000000000001" y="51.319037342894205" width="66.85714285714286" height="95.27722553567483" fill="#76B7B2"/>
<rect x="538.0000000000001" y="50.01161124421562" width="66.85714285714286" height="1.3074260986785837" fill="#59A14F"/>
<text x="571.4" y="484.0" font-size="11" text-anchor="middle" fill="#333">bpRNA:test</text>
<rect x="649.4285714285714" y="356.50546943911485" width="66.85714285714286" height="103.49453056088514" fill="#4E79A7"/>
<rect x="649.4285714285714" y="254.4336651651433" width="66.85714285714286" height="102.07180427397154" fill="#F28E2B"/>
<rect x="649.4285714285714" y="146.34510369657448" width="66.85714285714286" height="108.08856146856883" fill="#E15759"/>
<rect x="649.4285714285714" y="51.19829462424151" width="66.85714285714286" height="95.14680907233297" fill="#76B7B2"/>
<rect x="649.4285714285714" y="50.01249999133868" width="66.85714285714286" height="1.185794632902832" fill="#59A14F"/>
<text x="682.9" y="484.0" font-size="11" text-anchor="middle" fill="#333">bpRNA:train</text>
<rect x="760.8571428571429" y="357.085039664896" width="66.85714285714286" height="102.91496033510401" fill="#4E79A7"/>
<rect x="760.8571428571429" y="255.20628086022515" width="66.85714285714286" height="101.87875880467085" fill="#F28E2B"/>
<rect x="760.8571428571429" y="147.44372030983084" width="66.85714285714286" height="107.7625605503943" fill="#E15759"/>
<rect x="760.8571428571429" y="51.08897105281635" width="66.85714285714286" height="96.35474925701449" fill="#76B7B2"/>
<rect x="760.8571428571429" y="50.004797229307584" width="66.85714285714286" height="1.0841738235087637" fill="#59A14F"/>
<text x="794.3" y="484.0" font-size="11" text-anchor="middle" fill="#333">bpRNA:val</text>
<rect x="880" y="58" width="14" height="14" fill="#4E79A7"/>
<text x="902.0" y="70.0" font-size="12" text-anchor="start" fill="#333">A</text>
<rect x="880" y="82" width="14" height="14" fill="#F28E2B"/>
<text x="902.0" y="94.0" font-size="12" text-anchor="start" fill="#333">T</text>
<rect x="880" y="106" width="14" height="14" fill="#E15759"/>
<text x="902.0" y="118.0" font-size="12" text-anchor="start" fill="#333">G</text>
<rect x="880" y="130" width="14" height="14" fill="#76B7B2"/>
<text x="902.0" y="142.0" font-size="12" text-anchor="start" fill="#333">C</text>
<rect x="880" y="154" width="14" height="14" fill="#59A14F"/>
<text x="902.0" y="166.0" font-size="12" text-anchor="start" fill="#333">N</text>
</svg>