<svg xmlns="http://www.w3.org/2000/svg" width="1000" height="560" viewBox="0 0 1000 560">
<rect width="100%" height="100%" fill="white"/>
<text x="500.0" y="28.0" font-size="18" text-anchor="middle" fill="#333">Contact Density Distribution</text>
<line x1="70" y1="490" x2="780" y2="490" stroke="#333"/>
<line x1="70" y1="50" x2="70" y2="490" stroke="#333"/>
<polyline points="78.1,489.6 94.2,490.0 110.3,490.0 126.5,490.0 142.6,490.0 158.8,489.9 174.9,489.8 191.0,490.0 207.2,488.8 223.3,489.2 239.4,489.4 255.6,488.6 271.7,489.4 287.8,489.3 304.0,489.4 320.1,487.7 336.2,488.8 352.4,489.0 368.5,488.5 384.7,488.1 400.8,487.2 416.9,484.5 433.1,483.1 449.2,477.4 465.3,466.9 481.5,456.7 497.6,427.8 513.8,437.3 529.9,452.3 546.0,475.5 562.2,476.1 578.3,479.8 594.4,483.2 610.6,488.1 626.7,489.4 642.8,490.0 659.0,490.0 675.1,490.0 691.2,490.0 707.4,490.0 723.5,490.0 739.7,490.0 755.8,490.0 771.9,490.0" fill="none" stroke="#4E79A7" stroke-width="2"/>
<rect x="805" y="60" width="14" height="14" fill="#4E79A7"/>
<text x="825.0" y="72.0" font-size="12" text-anchor="start" fill="#333">ArchiveII:test</text>
<polyline points="78.1,489.6 94.2,489.8 110.3,489.9 126.5,489.9 142.6,489.8 158.8,489.8 174.9,489.7 191.0,489.7 207.2,489.1 223.3,489.5 239.4,489.3 255.6,489.1 271.7,489.5 287.8,489.1 304.0,489.0 320.1,488.1 336.2,489.1 352.4,488.6 368.5,488.2 384.7,487.3 400.8,478.0 416.9,477.0 433.1,467.2 449.2,441.2 465.3,361.8 481.5,217.9 497.6,50.0 513.8,67.8 529.9,359.4 546.0,457.9 562.2,471.2 578.3,477.5 594.4,485.5 610.6,489.1 626.7,489.7 642.8,490.0 659.0,490.0 675.1,490.0 691.2,490.0 707.4,490.0 723.5,490.0 739.7,490.0 755.8,490.0 771.9,490.0" fill="none" stroke="#F28E2B" stroke-width="2"/>
<rect x="805" y="82" width="14" height="14" fill="#F28E2B"/>
<text x="825.0" y="94.0" font-size="12" text-anchor="start" fill="#333">RNAStrAlign:train</text>
<polyline points="78.1,490.0 94.2,490.0 110.3,490.0 126.5,490.0 142.6,490.0 158.8,490.0 174.9,490.0 191.0,490.0 207.2,489.8 223.3,489.9 239.4,489.9 255.6,490.0 271.7,490.0 287.8,489.8 304.0,490.0 320.1,489.8 336.2,489.8 352.4,489.7 368.5,489.7 384.7,489.8 400.8,488.6 416.9,488.8 433.1,487.1 449.2,484.7 465.3,473.1 481.5,458.0 497.6,436.5 513.8,437.0 529.9,473.3 546.0,485.2 562.2,487.1 578.3,489.1 594.4,489.1 610.6,489.9 626.7,490.0 642.8,490.0 659.0,490.0 675.1,490.0 691.2,490.0 707.4,490.0 723.5,490.0 739.7,490.0 755.8,490.0 771.9,490.0" fill="none" stroke="#E15759" stroke-width="2"/>
<rect x="805" y="104" width="14" height="14" fill="#E15759"/>
<text x="825.0" y="116.0" font-size="12" text-anchor="start" fill="#333">RNAStrAlign:unused(vl)</text>
<polyline points="78.1,490.0 94.2,490.0 110.3,490.0 126.5,490.0 142.6,490.0 158.8,489.9 174.9,490.0 191.0,490.0 207.2,489.8 223.3,489.9 239.4,490.0 255.6,489.8 271.7,489.9 287.8,489.8 304.0,489.7 320.1,489.8 336.2,489.8 352.4,490.0 368.5,490.0 384.7,489.6 400.8,488.7 416.9,488.5 433.1,487.6 449.2,486.3 465.3,473.9 481.5,453.3 497.6,436.0 513.8,440.0 529.9,472.7 546.0,486.3 562.2,486.7 578.3,488.7 594.4,489.5 610.6,489.9 626.7,490.0 642.8,490.0 659.0,490.0 675.1,490.0 691.2,490.0 707.4,490.0 723.5,490.0 739.7,490.0 755.8,490.0 771.9,490.0" fill="none" stroke="#76B7B2" stroke-width="2"/>
<rect x="805" y="126" width="14" height="14" fill="#76B7B2"/>
<text x="825.0" y="138.0" font-size="12" text-anchor="start" fill="#333">RNAStrAlign:val/test</text>
<polyline points="78.1,489.8 94.2,489.4 110.3,489.2 126.5,488.4 142.6,488.8 158.8,488.8 174.9,488.9 191.0,489.4 207.2,489.2 223.3,489.3 239.4,489.0 255.6,489.1 271.7,487.5 287.8,488.4 304.0,488.2 320.1,487.1 336.2,487.0 352.4,485.3 368.5,486.2 384.7,485.5 400.8,484.2 416.9,483.5 433.1,486.0 449.2,485.3 465.3,483.4 481.5,483.2 497.6,483.5 513.8,483.5 529.9,482.8 546.0,486.1 562.2,487.9 578.3,488.4 594.4,489.1 610.6,489.2 626.7,489.1 642.8,489.3 659.0,489.8 675.1,489.8 691.2,490.0 707.4,489.9 723.5,490.0 739.7,490.0 755.8,490.0 771.9,490.0" fill="none" stroke="#59A14F" stroke-width="2"/>
<rect x="805" y="148" width="14" height="14" fill="#59A14F"/>
<text x="825.0" y="160.0" font-size="12" text-anchor="start" fill="#333">bpRNA:test</text>
<polyline points="78.1,489.5 94.2,485.7 110.3,480.6 126.5,472.8 142.6,481.2 158.8,476.8 174.9,479.5 191.0,483.6 207.2,484.8 223.3,484.1 239.4,480.7 255.6,481.0 271.7,470.0 287.8,476.1 304.0,474.3 320.1,471.4 336.2,464.4 352.4,460.0 368.5,456.0 384.7,454.4 400.8,448.5 416.9,443.6 433.1,447.3 449.2,440.4 465.3,439.1 481.5,438.9 497.6,434.5 513.8,437.6 529.9,439.6 546.0,455.1 562.2,469.0 578.3,475.1 594.4,478.1 610.6,480.7 626.7,484.6 642.8,486.2 659.0,487.9 675.1,487.7 691.2,489.0 707.4,489.5 723.5,489.9 739.7,489.9 755.8,490.0 771.9,489.9" fill="none" stroke="#EDC948" stroke-width="2"/>
<rect x="805" y="170" width="14" height="14" fill="#EDC948"/>
<text x="825.0" y="182.0" font-size="12" text-anchor="start" fill="#333">bpRNA:train</text>
<polyline points="78.1,489.9 94.2,489.5 110.3,489.1 126.5,488.0 142.6,488.8 158.8,488.9 174.9,488.4 191.0,489.2 207.2,489.5 223.3,489.4 239.4,489.1 255.6,488.9 271.7,487.7 287.8,488.2 304.0,486.8 320.1,487.6 336.2,487.2 352.4,486.3 368.5,486.0 384.7,486.1 400.8,484.5 416.9,483.8 433.1,483.5 449.2,484.4 465.3,485.1 481.5,483.5 497.6,484.5 513.8,483.4 529.9,484.9 546.0,487.0 562.2,486.8 578.3,488.4 594.4,488.2 610.6,489.1 626.7,489.2 642.8,489.1 659.0,489.8 675.1,489.6 691.2,490.0 707.4,489.8 723.5,490.0 739.7,490.0 755.8,490.0 771.9,490.0" fill="none" stroke="#B07AA1" stroke-width="2"/>
<rect x="805" y="192" width="14" height="14" fill="#B07AA1"/>
<text x="825.0" y="204.0" font-size="12" text-anchor="start" fill="#333">bpRNA:val</text>
</svg>