<svg xmlns="http://www.w3.org/2000/svg" width="1000" height="560" viewBox="0 0 1000 560">
<rect width="100%" height="100%" fill="white"/>
<text x="500.0" y="28.0" font-size="18" text-anchor="middle" fill="#333">Sequence Length Distribution</text>
<line x1="70" y1="490" x2="780" y2="490" stroke="#333"/>
<line x1="70" y1="50" x2="70" y2="490" stroke="#333"/>
<text x="425.0" y="538.0" font-size="13" text-anchor="middle" fill="#333">RNA sequence length</text>
<text x="18.0" y="270.0" font-size="13" text-anchor="middle" fill="#333">Count</text>
<polyline points="77.2,490.0 91.7,490.0 106.2,489.9 120.7,488.5 135.2,489.6 149.7,488.4 164.2,488.3 178.7,456.0 193.2,480.1 207.7,480.9 222.1,477.2 236.6,435.6 251.1,448.5 265.6,487.5 280.1,489.4 294.6,489.6 309.1,489.6 323.6,489.6 338.1,489.9 352.6,489.9 367.0,489.7 381.5,489.4 396.0,489.6 410.5,488.9 425.0,488.6 439.5,488.0 454.0,486.6 468.5,484.8 483.0,485.9 497.4,481.3 511.9,478.4 526.4,485.0 540.9,486.7 555.4,485.5 569.9,484.8 584.4,479.7 598.9,477.5 613.4,485.5 627.9,485.7 642.3,485.9 656.8,487.3 671.3,488.7 685.8,487.7 700.3,489.2 714.8,488.4 729.3,489.1 743.8,489.6 758.3,489.4 772.8,489.1" fill="none" stroke="#4E79A7" stroke-width="2" opacity="0.9"/>
<rect x="805" y="60" width="14" height="14" fill="#4E79A7"/>
<text x="825.0" y="72.0" font-size="12" text-anchor="start" fill="#333">ArchiveII:test</text>
<polyline points="77.2,490.0 91.7,490.0 106.2,490.0 120.7,489.5 135.2,490.0 149.7,489.2 164.2,489.3 178.7,50.0 193.2,416.6 207.7,470.2 222.1,478.7 236.6,124.0 251.1,205.7 265.6,488.1 280.1,489.9 294.6,489.8 309.1,489.4 323.6,489.6 338.1,490.0 352.6,489.9 367.0,488.9 381.5,487.8 396.0,487.9 410.5,486.0 425.0,482.7 439.5,482.1 454.0,475.5 468.5,477.7 483.0,483.3 497.4,479.0 511.9,474.5 526.4,480.7 540.9,483.0 555.4,480.6 569.9,481.1 584.4,474.8 598.9,472.7 613.4,479.8 627.9,480.0 642.3,480.0 656.8,479.0 671.3,476.9 685.8,481.8 700.3,483.6 714.8,483.7 729.3,483.8 743.8,481.3 758.3,485.3 772.8,487.1" fill="none" stroke="#F28E2B" stroke-width="2" opacity="0.9"/>
<rect x="805" y="82" width="14" height="14" fill="#F28E2B"/>
<text x="825.0" y="94.0" font-size="12" text-anchor="start" fill="#333">RNAStrAlign:train</text>
<polyline points="77.2,490.0 91.7,490.0 106.2,490.0 120.7,489.9 135.2,490.0 149.7,489.9 164.2,489.9 178.7,435.3 193.2,480.7 207.7,487.7 222.1,488.1 236.6,448.2 251.1,453.5 265.6,489.8 280.1,490.0 294.6,490.0 309.1,490.0 323.6,490.0 338.1,489.9 352.6,490.0 367.0,489.9 381.5,489.9 396.0,489.5 410.5,489.3 425.0,489.0 439.5,489.1 454.0,487.8 468.5,488.2 483.0,489.0 497.4,488.9 511.9,488.9 526.4,488.6 540.9,488.6 555.4,488.6 569.9,488.7 584.4,489.1 598.9,488.3 613.4,489.0 627.9,489.3 642.3,488.9 656.8,488.3 671.3,488.5 685.8,488.9 700.3,488.7 714.8,489.1 729.3,488.9 743.8,489.0 758.3,489.5 772.8,489.2" fill="none" stroke="#E15759" stroke-width="2" opacity="0.9"/>
<rect x="805" y="104" width="14" height="14" fill="#E15759"/>
<text x="825.0" y="116.0" font-size="12" text-anchor="start" fill="#333">RNAStrAlign:unused(vl)</text>
<polyline points="77.2,490.0 91.7,490.0 106.2,490.0 120.7,489.9 135.2,490.0 149.7,489.9 164.2,489.8 178.7,435.8 193.2,481.8 207.7,487.0 222.1,488.6 236.6,443.7 251.1,457.3 265.6,489.9 280.1,489.9 294.6,489.9 309.1,490.0 323.6,489.9 338.1,489.9 352.6,490.0 367.0,489.9 381.5,489.5 396.0,489.7 410.5,489.4 425.0,489.1 439.5,489.1 454.0,488.3 468.5,488.7 483.0,488.9 497.4,489.1 511.9,487.9 526.4,488.1 540.9,488.9 555.4,488.6 569.9,488.5 584.4,488.6 598.9,488.2 613.4,488.7 627.9,488.5 642.3,488.4 656.8,489.1 671.3,489.0 685.8,488.9 700.3,488.7 714.8,488.8 729.3,489.6 743.8,488.6 758.3,489.4 772.8,489.6" fill="none" stroke="#76B7B2" stroke-width="2" opacity="0.9"/>
<rect x="805" y="126" width="14" height="14" fill="#76B7B2"/>
<text x="825.0" y="138.0" font-size="12" text-anchor="start" fill="#333">RNAStrAlign:val/test</text>
<polyline points="77.2,490.0 91.7,490.0 106.2,489.8 120.7,489.4 135.2,488.8 149.7,488.6 164.2,484.6 178.7,476.2 193.2,479.8 207.7,482.0 222.1,483.7 236.6,482.3 251.1,484.1 265.6,484.7 280.1,487.1 294.6,487.6 309.1,487.9 323.6,488.1 338.1,488.0 352.6,488.4 367.0,488.4 381.5,489.0 396.0,488.2 410.5,489.5 425.0,489.6 439.5,489.6 454.0,489.9 468.5,489.5 483.0,489.9 497.4,489.5 511.9,489.6 526.4,489.7 540.9,489.6 555.4,489.2 569.9,489.6 584.4,489.2 598.9,489.4 613.4,489.4 627.9,489.3 642.3,489.6 656.8,489.4 671.3,489.6 685.8,489.9 700.3,489.7 714.8,489.8 729.3,489.9 743.8,489.9 758.3,490.0 772.8,489.9" fill="none" stroke="#59A14F" stroke-width="2" opacity="0.9"/>
<rect x="805" y="148" width="14" height="14" fill="#59A14F"/>
<text x="825.0" y="160.0" font-size="12" text-anchor="start" fill="#333">bpRNA:test</text>
<polyline points="77.2,490.0 91.7,490.0 106.2,490.0 120.7,484.6 135.2,478.5 149.7,471.4 164.2,446.5 178.7,382.0 193.2,400.7 207.7,418.1 222.1,427.6 236.6,444.4 251.1,449.7 265.6,443.4 280.1,458.1 294.6,469.7 309.1,474.3 323.6,471.4 338.1,472.0 352.6,475.0 367.0,478.3 381.5,477.8 396.0,480.5 410.5,487.1 425.0,487.1 439.5,487.0 454.0,486.6 468.5,486.4 483.0,486.6 497.4,487.1 511.9,485.5 526.4,485.8 540.9,486.8 555.4,486.6 569.9,486.4 584.4,482.8 598.9,483.2 613.4,485.1 627.9,486.4 642.3,486.6 656.8,487.1 671.3,487.4 685.8,488.3 700.3,489.1 714.8,488.7 729.3,489.4 743.8,489.2 758.3,489.7 772.8,489.6" fill="none" stroke="#EDC948" stroke-width="2" opacity="0.9"/>
<rect x="805" y="170" width="14" height="14" fill="#EDC948"/>
<text x="825.0" y="182.0" font-size="12" text-anchor="start" fill="#333">bpRNA:train</text>
<polyline points="77.2,490.0 91.7,490.0 106.2,490.0 120.7,489.2 135.2,488.9 149.7,487.8 164.2,484.1 178.7,477.2 193.2,478.7 207.7,482.5 222.1,482.5 236.6,483.0 251.1,486.3 265.6,483.7 280.1,486.8 294.6,488.2 309.1,487.3 323.6,488.2 338.1,487.9 352.6,487.3 367.0,488.7 381.5,489.0 396.0,489.1 410.5,489.1 425.0,489.5 439.5,489.8 454.0,489.5 468.5,489.4 483.0,489.8 497.4,489.7 511.9,489.4 526.4,489.6 540.9,489.6 555.4,489.6 569.9,489.5 584.4,489.1 598.9,489.4 613.4,489.4 627.9,489.7 642.3,489.8 656.8,489.7 671.3,489.7 685.8,489.7 700.3,489.9 714.8,489.9 729.3,489.9 743.8,490.0 758.3,490.0 772.8,490.0" fill="none" stroke="#B07AA1" stroke-width="2" opacity="0.9"/>
<rect x="805" y="192" width="14" height="14" fill="#B07AA1"/>
<text x="825.0" y="204.0" font-size="12" text-anchor="start" fill="#333">bpRNA:val</text>
</svg>