<svg xmlns="http://www.w3.org/2000/svg" width="1000" height="560" viewBox="0 0 1000 560">
<rect width="100%" height="100%" fill="white"/>
<text x="500.0" y="28.0" font-size="18" text-anchor="middle" fill="#333">Length Distribution Boxplot</text>
<line x1="70" y1="440" x2="960" y2="440" stroke="#333"/>
<line x1="70" y1="50" x2="70" y2="440" stroke="#333"/>
<line x1="133.57142857142856" y1="417.7142857142857" x2="133.57142857142856" y2="50.79591836734693" stroke="#4E79A7" stroke-width="2"/>
<rect x="98.60714285714283" y="196.44897959183672" width="69.92857142857143" height="159.18367346938774" fill="#4E79A7" opacity="0.35" stroke="#4E79A7"/>
<line x1="98.60714285714283" y1="344.48979591836735" x2="168.53571428571428" y2="344.48979591836735" stroke="#4E79A7" stroke-width="3"/>
<text x="133.6" y="464.0" font-size="11" text-anchor="middle" fill="#333">ArchiveII test</text>
<line x1="260.7142857142857" y1="416.1224489795918" x2="260.7142857142857" y2="50.79591836734693" stroke="#F28E2B" stroke-width="2"/>
<rect x="225.75" y="342.8979591836735" width="69.92857142857143" height="36.61224489795916" fill="#F28E2B" opacity="0.35" stroke="#F28E2B"/>
<line x1="225.75" y1="347.6734693877551" x2="295.67857142857144" y2="347.6734693877551" stroke="#F28E2B" stroke-width="3"/>
<text x="260.7" y="464.0" font-size="11" text-anchor="middle" fill="#333">RNAStrAlign train</text>
<line x1="387.85714285714283" y1="411.3469387755102" x2="387.85714285714283" y2="50.79591836734693" stroke="#E15759" stroke-width="2"/>
<rect x="352.8928571428571" y="342.8979591836735" width="69.92857142857143" height="36.61224489795916" fill="#E15759" opacity="0.35" stroke="#E15759"/>
<line x1="352.8928571428571" y1="346.8775510204082" x2="422.82142857142856" y2="346.8775510204082" stroke="#E15759" stroke-width="3"/>
<text x="387.9" y="464.0" font-size="11" text-anchor="middle" fill="#333">RNAStrAlign unused(vl)</text>
<line x1="515.0" y1="416.1224489795918" x2="515.0" y2="51.59183673469391" stroke="#76B7B2" stroke-width="2"/>
<rect x="480.0357142857143" y="342.8979591836735" width="69.92857142857143" height="35.81632653061223" fill="#76B7B2" opacity="0.35" stroke="#76B7B2"/>
<line x1="480.0357142857143" y1="347.6734693877551" x2="549.9642857142857" y2="347.6734693877551" stroke="#76B7B2" stroke-width="3"/>
<text x="515.0" y="464.0" font-size="11" text-anchor="middle" fill="#333">RNAStrAlign val/test</text>
<line x1="642.1428571428571" y1="422.48979591836735" x2="642.1428571428571" y2="57.16326530612247" stroke="#59A14F" stroke-width="2"/>
<rect x="607.1785714285714" y="319.4183673469388" width="69.92857142857143" height="56.90816326530609" fill="#59A14F" opacity="0.35" stroke="#59A14F"/>
<line x1="607.1785714285714" y1="354.0408163265306" x2="677.1071428571428" y2="354.0408163265306" stroke="#59A14F" stroke-width="3"/>
<text x="642.1" y="464.0" font-size="11" text-anchor="middle" fill="#333">bpRNA test</text>
<line x1="769.2857142857142" y1="413.734693877551" x2="769.2857142857142" y2="52.387755102040785" stroke="#EDC948" stroke-width="2"/>
<rect x="734.3214285714286" y="319.8163265306123" width="69.92857142857143" height="56.510204081632594" fill="#EDC948" opacity="0.35" stroke="#EDC948"/>
<line x1="734.3214285714286" y1="356.42857142857144" x2="804.2499999999999" y2="356.42857142857144" stroke="#EDC948" stroke-width="3"/>
<text x="769.3" y="464.0" font-size="11" text-anchor="middle" fill="#333">bpRNA train</text>
<line x1="896.4285714285714" y1="413.734693877551" x2="896.4285714285714" y2="78.65306122448982" stroke="#B07AA1" stroke-width="2"/>
<rect x="861.4642857142858" y="320.2142857142857" width="69.92857142857143" height="56.11224489795916" fill="#B07AA1" opacity="0.35" stroke="#B07AA1"/>
<line x1="861.4642857142858" y1="355.63265306122446" x2="931.3928571428571" y2="355.63265306122446" stroke="#B07AA1" stroke-width="3"/>
<text x="896.4" y="464.0" font-size="11" text-anchor="middle" fill="#333">bpRNA val</text>
</svg>